<svg xmlns="http://www.w3.org/2000/svg" width="100" height="100" fill="none"><circle cx="50" cy="50" r="50" fill="#0F76D1"/><path fill="#fff" d="m73.112 37.734-17.143-9.52a1.7 1.7 0 0 0-1.653 0l-17.142 9.52c-.27.15-.493.369-.65.635a1.744 1.744 0 0 0 .65 2.397l16.255 9.026v18.552l-5.205-2.89-1.653 3.03 7.746 4.302a1.7 1.7 0 0 0 1.652 0l17.143-9.52c.269-.149.493-.368.65-.635.156-.267.238-.571.238-.88V39.25c0-.31-.082-.614-.239-.88a1.7 1.7 0 0 0-.649-.636m-17.97-6.027 13.586 7.543-13.585 7.543-13.586-7.543zm15.43 29.02-13.715 7.616V49.79l13.714-7.615z"/><path fill="#fff" d="M39.714 50.5H26v-3.462h13.714zm3.429 13.846H29.429v-3.461h13.714zm3.428-6.923H32.858v-3.462h13.715z"/></svg>