<svg xmlns="http://www.w3.org/2000/svg" width="100" height="100" fill="none"><circle cx="50" cy="50" r="50" fill="#0F76D1"/><path fill="#fff" fill-rule="evenodd" d="M53.057 29.214c4.386.652 8.69 2.814 12.426 6.741v-5.299h3.458v11.95H56.918v-3.438h6.824c-3.446-3.986-7.37-5.985-11.197-6.555-4.635-.69-9.323.689-13.116 3.522l-2.078-2.748c4.442-3.318 10.047-5.015 15.706-4.173m-18.439 7.22 7.214 9.56-2.767 2.063-4.1-5.433c-1.14 4.621-1.208 8.752-.073 12.324 1.376 4.33 4.602 8.096 10.447 11.001l-1.546 3.075c-6.507-3.234-10.487-7.652-12.199-13.04-1.25-3.932-1.246-8.24-.307-12.77l-4.212 3.14L25 43.604zm20.66 32.286c5.474-1.414 9.318-4.466 11.829-8.209C69.909 56.333 71 51.377 71 47.025h-3.459c0 3.833-.968 8.085-3.312 11.58-2.158 3.217-5.526 5.865-10.593 6.972l2.77-5.506-3.093-1.538-4.763 9.468L57.94 75l2.075-2.75z" clip-rule="evenodd"/></svg>