<svg xmlns="http://www.w3.org/2000/svg" width="100" height="100" fill="none"><circle cx="50" cy="50" r="50" fill="#0F76D1"/><path stroke="#fff" stroke-linecap="round" stroke-width="3.5" d="M68.75 50c0 11.506-4.198 20.833-9.375 20.833m0-41.666c3.844 0 7.148 5.141 8.596 12.5M31.25 50c0-11.506 4.198-20.833 9.375-20.833S50 38.494 50 50s-4.198 20.833-9.375 20.833c-3.844 0-7.148-5.141-8.596-12.5"/><path stroke="#fff" stroke-width="3.5" d="M40.625 70.833C45.802 70.833 50 61.506 50 50s-4.198-20.833-9.375-20.833"/><path stroke="#fff" stroke-width="3.5" d="M40.625 29.167h18.75m-18.75 41.666h18.75M43.75 50c0 6.904-1.4 12.5-3.125 12.5S37.5 56.904 37.5 50s1.4-12.5 3.125-12.5S43.75 43.096 43.75 50Z"/><path stroke="#fff" stroke-linecap="round" stroke-width="3.5" d="M43.75 50h-2.083"/></svg>