<svg xmlns="http://www.w3.org/2000/svg" width="100" height="100" fill="none"><circle cx="50" cy="50" r="50" fill="#0F76D1"/><path fill="#fff" d="M50 26a24 24 0 1 0 24 24 24.025 24.025 0 0 0-24-24m0 44.308A20.307 20.307 0 1 1 70.308 50 20.33 20.33 0 0 1 50 70.308M46.308 44.46a1.846 1.846 0 0 1-1.846 1.847h-1.847v9.23a1.846 1.846 0 0 1-3.692 0v-9.23h-1.846a1.846 1.846 0 0 1 0-3.693h7.385a1.846 1.846 0 0 1 1.846 1.846m18.461 0V55.54a1.846 1.846 0 0 1-3.692 0v-6.164l-3.23 3.692a1.847 1.847 0 0 1-2.77 0l-3.23-3.692v6.163a1.846 1.846 0 1 1-3.693 0V44.463a1.846 1.846 0 0 1 3.23-1.217l5.078 5.797 5.076-5.797a1.846 1.846 0 0 1 3.231 1.217"/></svg>